<?xml version="1.0" encoding="UTF-8"?>
<svg id="_レイヤー_1" data-name="レイヤー_1" xmlns="http://www.w3.org/2000/svg" version="1.1" viewBox="0 0 100 70">
  <!-- Generator: Adobe Illustrator 29.0.1, SVG Export Plug-In . SVG Version: 2.1.0 Build 192)  -->
  <path d="M66.1,64.3l-19.4-8.9c-4.8,3.4-9,7.7-13.2,11.7l-1.6.2c-3-6.9-3.6-14.6-6.7-21.5-7.2-3.3-14.7-6-22.1-8.8l-.9-1.6c.1-.5,2.8-1.5,3.4-1.7,5.7-2.2,11.8-3.8,17.6-5.8C47.4,19.5,71.8,10.9,96.2,2.7c.7-.2,1.2.2,1.7.7v.5s-31.7,60.5-31.7,60.5ZM6.7,35.6c-.4.5,4.8,2.5,5.3,2.7,3.5,1.4,9.7,4.1,13.1,5s1.1.3,1.7,0c16.8-9.2,33.1-19.4,49.7-28.9,3.5-2,7.3-3.6,10.7-5.9s1.2-.6,1.2-1.2L6.7,35.6ZM92.6,8.7l-55.2,40.4c9.2,3.6,17.9,8.1,26.9,12.1h1.2c0,0,27-52.5,27-52.5ZM81.7,14l-53.7,31.1-.2,1,4.3,15.5.9-3.8c.6-3.3.7-6.7,1.9-9.9,10.1-6.6,19.6-14,29.3-21.1s11.9-8.2,17.4-12.8ZM44.1,54.2l-6.9-3c-.3-.1-.4,0-.7.1-.5.4-2.5,11.5-2.1,12,1-.4,10.1-8.6,9.7-9.2Z"/>
  <path d="M51.7,25.5l-2.1,1.6c-2.1.8-4.2,2.7-6.1,3.6s-.6.2-1,.1c0-.4,0-.7.1-1,.5-1,7.5-4,9-4.3Z"/>
</svg>