<?xml version="1.0" encoding="UTF-8"?>
<svg id="_レイヤー_1" xmlns="http://www.w3.org/2000/svg" version="1.1" viewBox="0 0 700 400">
  <!-- Generator: Adobe Illustrator 29.0.1, SVG Export Plug-In . SVG Version: 2.1.0 Build 192)  -->
  <defs>
    <style>
      .st0 {
        fill: #f9f8f8;
      }
    </style>
  </defs>
  <path class="st0" d="M51.6,306.2C32.5,202.7,129.8,39.4,241.4,18.8c24.6-4.5,70.3-3.2,77,33.1,2.9,15.8-4.1,34.6-12.9,54.6-5.3,11.9-21.5,41-29.9,42.5-4.8.9-9.7.2-10.1-2-.5-2.6,5-4.8,18.2-29.7,10.1-19.1,22.8-47.6,18.8-69.6-3.4-18.2-20.9-28.4-51.7-22.8C143.9,44.7,49.5,215.9,67.6,314.4c8.9,48.4,45.2,69.2,93.6,60.3,20.2-3.7,39.5-12.5,56-24.4,50.7-34.5,86.9-79.8,128.3-121.5,8.4-8.8,16.7-18.1,23.9-28,.3-1,2.5-1.1,1.4.2-13.1,24-33.6,43.4-50.8,64.8-36.1,43.4-90.4,103.9-148.7,114.6-59.1,10.9-108-10.1-119.7-74.1Z"/>
  <path class="st0" d="M442.4,232.3c12.1-35.6,28.6-65.9,31-88.6.3-2.3-.6-3.3-2.6-2.9-25.1,4.6-63.6,30.8-73.1,50.9-2.3,5-1.9,10.8-1.5,15.1.7,10.1,0,19.5-4.2,28.9-3.6,7.7-8.7,11.8-14.2,12.8-1.3.2-2.6.5-4,.3-3.7-.2-7.4-2-10.7-4.9-2-2.1-3.4-5-4-8.3-.4-2-.3-4-.2-5.9.6-12.6,13-38.3,24.8-40.5,1.8-.3,3.4-.2,5.1.6,12.6-26.8,66.9-52.7,80.9-55.3,2.4-.4,4.5-.4,6.4,0,5.8.7,8.5,4.1,9.5,9.4,2.6,14.1-3.1,29-12.1,52.7,18.2-25.6,30-44.4,45.7-59.3,1.7-1.7,4.1-2.6,6.5-3,5.7-1.1,12.3,1.4,13.4,6.2,2.3,6.2-8.1,37.4-6.5,46.4.3,1.8,1,2.8,2.5,2.5,7.7-1.4,16.6-11.2,24.6-18.2,5.1-4.6,12.6-13,16.1-13.6,2.2-.4,4.2.4,7.3,1.4,6.5,2,8.2,8.9,10.1,18.8l1.4,7.5c.8,4.6,3.9,9,11.1,7.5,30.4-6.3,58.8-38.8,52.7-29.7-11.4,17.1-32.3,31.8-46.6,34.5-17.6,3.2-30.5-6.4-32.6-18.1-.8-4.6-.9-7.3-1.3-9.5-.4-2-1.1-3.7-2.7-3.4-.7.1-1.3.5-2.3,1.3-9.7,8.8-18.7,18.4-30.5,27-2.4,1.6-5,2.7-7.4,3.2-2.9.5-5.6.4-8.2-.3-6.3-.7-9.2-4.2-10.2-9.5-1.8-9.7,3.4-24.7,5.6-36.5,1.1-6.3.8-9.5-5.7-2.4-12.8,14.4-23.1,30.1-33,44.5-7.1,9.7-20.2,37.1-23.4,39.5-1.5,1.6-3.9,2.5-6,2.9-5.9,1.1-12.5-1.1-11.6-4ZM388.9,201.9c-10.3,9.6-16.5,22.8-16.9,32.7-.2,1.6-.1,10.5,4.3,9.7,9.9-1.8,16.1-26.4,12.7-42.3Z"/>
</svg>