<?xml version="1.0" encoding="UTF-8"?>
<svg id="_レイヤー_1" data-name="レイヤー_1" xmlns="http://www.w3.org/2000/svg" version="1.1" viewBox="0 0 550 130">
  <!-- Generator: Adobe Illustrator 29.0.1, SVG Export Plug-In . SVG Version: 2.1.0 Build 192)  -->
  <defs>
    <style>
      .st0 {
        fill: #333;
      }
    </style>
  </defs>
  <g>
    <path class="st0" d="M36.2,69.8c-2.7-3.6-6-4-7.6-4-4.9,0-6.4,3.1-6.4,5.5s.4,2.2,1.5,3.2c1.1,1,2.7,1.6,5.6,2.7,3.6,1.3,7.1,2.5,9.5,4.7,2.1,1.9,4,5,4,9.8,0,9.1-6.6,15.3-16.2,15.3s-13.7-5.2-16.1-8.8l6-5.7c2.2,4.5,6.5,6.2,9.8,6.2s7.2-2.5,7.2-6.4-.6-3-1.8-4.2c-1.8-1.6-4.6-2.5-7.2-3.4-2.5-.8-5.4-2-7.8-4.1-1.5-1.3-3.7-3.9-3.7-8.7,0-6.9,4.6-13.7,15-13.7s8.5.6,13.2,5.5l-4.8,6.2Z"/>
    <path class="st0" d="M72.6,75.6h8.5v30.3h-8.5v-3.9c-3.1,4.4-7.1,4.9-9.3,4.9-9.3,0-15.5-7.3-15.5-16.2s6.1-16.1,15.1-16.1,6.9.4,9.7,4.9v-3.9ZM56.6,90.7c0,4.8,3.5,8.6,8.4,8.6s8.4-3.8,8.4-8.6-3.5-8.5-8.4-8.5-8.4,3.7-8.4,8.5Z"/>
    <path class="st0" d="M89.3,75.6h8.5v3.4c3.2-4.1,7.2-4.4,9-4.4,6.4,0,8.8,4,9.6,5.5,1.5-2.4,4.5-5.5,9.7-5.5s7,2.2,8.2,3.7c2,2.6,2.1,5.2,2.1,8.5v19h-8.5v-16.5c0-3.6-.8-5.2-1.4-6-1.1-1.4-2.7-1.5-3.5-1.5-2.3,0-3.8,1-4.7,2.7-1.1,1.8-1.2,4.3-1.2,5.9v15.5h-8.5v-16.5c0-3.6-.8-5.2-1.4-6-1.1-1.4-2.7-1.5-3.5-1.5-2.3,0-3.8,1-4.7,2.7-1.1,1.8-1.2,4.3-1.2,5.9v15.5h-8.5v-30.3Z"/>
    <path class="st0" d="M153.1,121.9h-8.5v-46.3h8.5v3.9c1.3-1.9,4.3-4.9,9.9-4.9s6.9.6,10.4,4.1,4.6,6,4.6,12-3,10.6-4.8,12.3c-2.3,2.2-5.8,3.9-10.3,3.9s-6.4-.3-9.7-4.9v20ZM155.1,84.2c-1.9,1.6-2.9,3.7-2.9,6.5s1.1,5.1,2.8,6.6c1.1,1,2.9,2,5.6,2s4.6-1.1,5.7-2.2c1.8-1.7,2.7-4.2,2.7-6.4s-.9-4.8-2.6-6.4c-1.5-1.4-3.8-2.2-5.8-2.2s-4,.6-5.5,2Z"/>
    <path class="st0" d="M193,54.8v51h-8.5v-51h8.5Z"/>
    <path class="st0" d="M230.9,97.4c-.9,2.2-4.3,9.5-14.9,9.5s-8.6-1.4-11.6-4.3c-3.4-3.1-4.8-7.1-4.8-11.8s2.5-9.7,4.6-11.9c3.6-3.5,7.8-4.3,11.4-4.3,6.2,0,9.7,2.5,11.8,5,3.2,3.9,3.6,8.6,3.6,11.9v.7h-22.7c0,1.8.5,3.8,1.5,5.1.9,1.3,2.8,2.9,6.1,2.9s5.7-1.5,7.1-4l7.8,1.3ZM223,86.7c-.7-4.1-4.1-6.1-7.2-6.1s-6.4,2-7.1,6.1h14.4Z"/>
    <path class="st0" d="M289.1,104.2c-2.8,1.5-6.5,2.7-11.6,2.7-8.2,0-13.2-2.8-17.1-6.5-5.4-5.2-7.5-11-7.5-17.9s3.5-14.6,7.5-18.3c4.7-4.4,10.5-6.2,17.2-6.2s7.2.6,11.5,2.9v10.6c-4.3-4.9-9.6-5.3-11.3-5.3-9.4,0-15.5,7.7-15.5,16.3s8,16,15.8,16,8.2-1.9,10.9-5.1v10.6Z"/>
    <path class="st0" d="M324.3,78.8c3,2.7,5.1,6.9,5.1,11.9s-2.1,9.1-5.1,11.8c-2.6,2.4-6.5,4.3-12.3,4.3s-9.7-1.9-12.3-4.3c-3-2.7-5.1-6.9-5.1-11.8s2.1-9.2,5.1-11.9c2.6-2.4,6.5-4.3,12.3-4.3s9.7,1.9,12.3,4.3ZM320.6,90.7c0-4.8-3.6-8.6-8.5-8.6s-8.5,3.9-8.5,8.6,3.6,8.5,8.5,8.5,8.5-3.9,8.5-8.5Z"/>
    <path class="st0" d="M336,75.6h8.5v3.4c3.2-4.1,7.2-4.4,9-4.4,6.4,0,8.8,4,9.6,5.5,1.5-2.4,4.5-5.5,9.7-5.5s7,2.2,8.2,3.7c2,2.6,2.1,5.2,2.1,8.5v19h-8.5v-16.5c0-3.6-.8-5.2-1.4-6-1.1-1.4-2.7-1.5-3.5-1.5-2.3,0-3.8,1-4.7,2.7-1.1,1.8-1.2,4.3-1.2,5.9v15.5h-8.5v-16.5c0-3.6-.8-5.2-1.4-6-1.1-1.4-2.7-1.5-3.5-1.5-2.3,0-3.8,1-4.7,2.7-1.1,1.8-1.2,4.3-1.2,5.9v15.5h-8.5v-30.3Z"/>
    <path class="st0" d="M399.8,121.9h-8.5v-46.3h8.5v3.9c1.3-1.9,4.3-4.9,9.9-4.9s6.9.6,10.4,4.1,4.6,6,4.6,12-3,10.6-4.8,12.3c-2.3,2.2-5.8,3.9-10.3,3.9s-6.4-.3-9.7-4.9v20ZM401.9,84.2c-1.9,1.6-2.9,3.7-2.9,6.5s1.1,5.1,2.8,6.6c1.1,1,2.9,2,5.6,2s4.6-1.1,5.7-2.2c1.8-1.7,2.7-4.2,2.7-6.4s-.9-4.8-2.6-6.4c-1.5-1.4-3.8-2.2-5.8-2.2s-4,.6-5.5,2Z"/>
    <path class="st0" d="M454.4,75.6h8.5v30.3h-8.5v-3.9c-3.1,4.4-7.1,4.9-9.3,4.9-9.3,0-15.5-7.3-15.5-16.2s6.1-16.1,15.1-16.1,6.9.4,9.7,4.9v-3.9ZM438.5,90.7c0,4.8,3.5,8.6,8.4,8.6s8.4-3.8,8.4-8.6-3.5-8.5-8.4-8.5-8.4,3.7-8.4,8.5Z"/>
    <path class="st0" d="M471.1,75.6h8.5v3.9c1.6-2.2,4.5-4.9,9.4-4.9s6.6.8,9,3.7c2.1,2.6,2.4,5.6,2.4,8.5v19h-8.5v-16.5c0-1.7,0-4.3-1.6-6-1.3-1.4-3.2-1.5-4-1.5-2.2,0-4,.8-5.2,2.7-1.3,2-1.3,4.1-1.3,5.9v15.5h-8.5v-30.3Z"/>
    <path class="st0" d="M519,101.3l-14.4-25.8h9.9l9.4,17.2,8.4-17.2h9.7l-24.4,46.3h-9.7l11.1-20.6Z"/>
  </g>
  <g>
    <path class="st0" d="M125,11c1.2.3,2.6.4,5.3.4s.2,0,.7,0q0-.7.2-2.2c0-.4,0-1.4,0-1.6s0-.2,0-.4l1.8.2c-.3.8-.4,1.8-.6,4.1,4.3-.2,8.6-.8,10.7-1.6v1.6c-.3,0-.3,0-.9.1-3,.6-7.1,1-9.9,1.1-.1,2.4-.2,2.7-.2,4,1.5-.4,2.8-.6,4.3-.6s.9,0,1.7,0c.3-.8.6-1.8.7-2.6l1.6.5q-.2.3-.5,1.1t-.4,1.2c3.9.8,6.2,3.2,6.2,6.6s-1.5,4.8-4.3,6.2c-1.6.8-3.2,1.3-5.7,1.6-.3-.7-.4-1-.7-1.5,1.7,0,2.9-.3,4.3-.8,3.1-1.1,4.9-3.2,4.9-5.8s-1-3.4-2.7-4.3c-.7-.4-1.3-.6-2.3-.8-1.6,3.8-3.1,6.2-5.2,8.4-2.1,2.2-4.3,3.4-6.2,3.4s-3.4-1.7-3.4-4.1c0-3.4,2.4-6.5,6.4-8.3,0-1.9,0-2.2.2-4.5-.7,0-.9,0-1,0-.9,0-1.3,0-4-.1-.3,0-.4,0-.5,0h-.4v-1.6ZM125.7,25.3c0,1.6.9,2.7,2.1,2.7s2.2-.5,3.5-1.5c-.4-2.2-.6-4.5-.6-7.9-3.1,1.6-5,4.1-5,6.7ZM132.6,25.6c.2-.4.3-.4.5-.7,2.1-2.5,3.2-4.3,4.6-7.5-1,0-1.1,0-1.5,0-1.4,0-2.6.2-4.1.7,0,4.1,0,4.4.3,6.7,0,.3,0,.4,0,.5s0,.2,0,.3h.1Z"/>
    <path class="st0" d="M160.3,7.5c-.2.5-.2.6-.4,1.7-.2,1-.4,1.7-.8,3.2,2.1-.2,3.8-.5,5.2-.9v1.6q-.2,0-.9.2c-1.2.3-3,.5-4.6.6-.9,3.1-1.9,5.6-3.1,8.2-.8,1.5-.8,1.6-2.5,4.6l-1.6-1c.9-1.1,1.7-2.4,2.7-4.3,1.3-2.5,2.1-4.5,2.9-7.4-.6,0-1.5,0-2,0s-1.6,0-2,0c-.3,0-.5,0-.6,0s-.2,0-.4,0v-1.6c1,.2,1.7.2,3.4.2s1.1,0,2,0c.6-2,1-4,1-5.3l1.8.3ZM173.8,29c-1-1.3-3-2.8-5.1-3.8,0,.4,0,.6,0,1,0,2.9-1.8,4.5-5.2,4.5s-5.3-1.5-5.3-3.9,1-2.7,2.5-3.4c.9-.4,2-.6,3.2-.6s1.9.1,3.1.4c-.1-1.3-.2-3-.2-3.9s0-1.7.3-2.8l1.5.2c-.3,1-.4,1.6-.4,2.7s.1,2.9.3,4.3c2.3,1,4,2.1,5.5,3.5q.3.3.5.4l-.9,1.6ZM163.9,24c-2.4,0-4.1,1-4.1,2.6s1.3,2.5,3.8,2.5,3.7-1,3.7-3.2,0-1.3,0-1.3c-1.3-.4-2.1-.6-3.3-.6ZM173.7,16.4c-2.2-1.6-4.3-2.7-7.3-3.8l.9-1.2c3.2,1.3,5.1,2.2,7.2,3.7l-.8,1.4Z"/>
    <path class="st0" d="M180.3,12.4c.9.2,1.8.2,3.2.2s1.1,0,2,0c.6-3.2.6-3.9.7-5.2l1.8.2q-.2.6-.5,2.6c-.1.8-.2,1.3-.4,2.3,2.2-.2,3.7-.5,5.1-1v1.6q0,0-.6.2c-1.3.3-3.1.6-4.7.7-.4,2.3-1.3,5.6-2,8.1-.9,2.9-1.8,5.3-3.2,8.4l-1.7-.8c2.1-3.7,4.1-9.5,5.3-15.6-.7,0-1.5,0-2.3,0s-1.2,0-2,0h-.2q0,0-.4,0v-1.6ZM192.5,22.4c-1.1,1.2-1.6,2.1-1.6,3,0,1.8,1.8,2.7,5.1,2.7s4.5-.4,6.1-1l.2,1.8c-3.3.6-4.3.7-6.1.7s-3.8-.3-5-1c-1.1-.6-1.8-1.8-1.8-3.1s.5-2.4,1.8-3.9l1.3.7ZM201.2,17.2c-1.3-.2-2.1-.2-3.2-.2-2.4,0-4.5.3-6.9,1l-.2-1.5c3-.7,4.9-1,7.3-1s1,0,3,.1v1.6Z"/>
    <path class="st0" d="M217.6,22.2c-1.6,3.7-3.2,5.4-5.2,5.4s-4.4-2.8-4.4-6.6,1.1-5.5,2.9-7.6c2.2-2.5,5.2-3.7,8.9-3.7s5.7,1,7.5,2.7c1.8,1.7,2.7,4.1,2.7,6.7,0,4.1-2.1,7.5-5.9,9.3-1.3.6-2.5,1-4.6,1.5-.3-.8-.4-1-.8-1.6,2.3-.4,3.7-.9,5.2-1.6,2.8-1.5,4.5-4.4,4.5-7.7s-1.7-6-4.7-7.3c-1.1-.4-1.9-.6-3.4-.7-.4,3.9-1.5,8.1-2.7,11ZM214.4,12.5c-3,1.7-4.8,5-4.8,8.6s1.2,4.9,2.8,4.9,2.4-1.3,3.7-4.2c1.2-2.7,2.2-6.9,2.6-10.6-1.7.1-3,.5-4.3,1.3Z"/>
    <path class="st0" d="M254.3,10.9c1.5,0,2.2,0,3.1-.2v1.7c-.8-.1-1.8-.2-3.1-.2h-6.9v5.4h8.6c1.4,0,2.3,0,3.1-.2v1.7c-.9-.1-1.8-.2-3.1-.2h-7.9c1.3,2,2.5,3.4,4.1,4.9,2.3,2.1,4.4,3.6,7.4,5-.6.6-.7.8-1.1,1.4-2.9-1.6-4.6-2.9-6.7-4.8-1.9-1.8-2.9-3.1-4.5-5.8,0,1.8.1,2.4.1,3.1v6.4c0,1.2,0,1.9.2,2.7h-1.8c.1-.8.2-1.5.2-2.7v-6.4c0-.9,0-1.5,0-3.1-1.3,2.2-2.4,3.6-4,5.3s-4.1,3.6-6.7,5.1c-.4-.5-.6-.9-1.1-1.3,4.8-2.6,8.2-5.6,11-9.8h-7.2c-1,0-2,0-3,.2v-1.7c1,.1,1.8.2,3,.2h8v-5.4h-6.3c-1.1,0-2,0-3,.2v-1.7c1,.1,1.8.2,3,.2h6.3v-2.1c0-1,0-1.6-.2-2.4h1.7c-.1.7-.1,1.2-.1,2.4v2.1h6.9Z"/>
    <path class="st0" d="M278.2,18.8c1.6-2.3,2.5-4,3.5-6.6l1.4.6c-1.1,2.4-1.9,3.9-3.3,6h4.5c1.6,0,2.4,0,3-.2v1.7c-.9-.1-1.7-.2-3.1-.2h-8.1c1.5,1.9,2.2,2.7,3.6,4,2.3,2.1,4.8,3.8,7.8,5-.4.4-.6.8-1,1.4-2.8-1.4-5.1-2.9-7.3-4.9-1.5-1.4-2.5-2.6-4-4.8,0,1.7.1,2.4.1,3.1v5.3c0,1.2,0,1.9.2,2.7h-1.8c.1-.8.2-1.5.2-2.7v-5.3c0-.9,0-1.5.1-3.1-1.8,2.9-3.1,4.3-5.4,6.2-1.7,1.4-3.2,2.4-5.1,3.5-.4-.6-.6-.8-1.1-1.3,3.1-1.6,5.8-3.5,8-5.8,1-1,1.7-1.8,2.7-3.3h-7.6c-1.1,0-2,0-3,.2v-1.7c1,.1,1.8.2,3,.2h8.3v-7.6h-6.8c-1,0-2,0-3,.2v-1.7c1,.1,1.8.2,3,.2h6.7v-1c0-1,0-1.6-.2-2.4h1.7c-.1.7-.2,1.2-.2,2.4v1h7.3c1.7,0,2.4,0,3.1-.2v1.7c-.8-.1-1.7-.2-3.1-.2h-7.3v7.6h2.8ZM267.8,12.3c1.3,2,1.8,2.9,2.9,5.3l-1.3.7c-1-2.3-1.5-3.4-2.9-5.4l1.2-.6Z"/>
    <path class="st0" d="M299.3,11.2c1-2,1.3-3.1,1.4-3.9l1.8.4q-.3.4-.8,1.5c-.4,1-.8,1.8-.9,2q.3,0,1.8-.1c3.5-.2,6.4-.6,7.7-1l.2,1.6c-.4,0-.6,0-1.1.2-2.7.4-5.7.6-9.2.7-1.5,2.8-2.5,4.2-4.2,5.9h0q1.1-.8,1.4-1c1.3-1,2.9-1.5,4.3-1.5,2.1,0,3.3,1.1,3.6,3.1,1.6-.6,3.8-1.5,5-1.9,1.3-.5,1.4-.5,1.8-.8l.8,1.6c-1.4.2-4.3,1.2-7.5,2.5,0,.7,0,1,0,1.8s0,1.1,0,1.6c0,.6,0,1.1,0,1.4s0,.5,0,.9h-1.6c.1-.6.2-2.5.2-4.2s0-.5,0-.9c-4,1.8-5.6,3.3-5.6,5s1.8,2.8,5.7,2.8,6-.4,7.5-1.1l.3,1.8c-.4,0-.6,0-1.1.1-2.3.4-4.6.6-6.7.6-4.9,0-7.3-1.4-7.3-4.2s.9-2.9,2.8-4.3c1-.7,2.3-1.4,4.2-2.3-.2-1.7-1-2.4-2.4-2.4s-4.1,1.1-6.4,3c-1.1.9-1.7,1.5-2.1,2.2l-1.3-1.3c2-1.5,4.5-4.8,6.4-8.2q0-.1.1-.2v-.2s-.2,0-.4,0c-.5,0-3.2,0-4.3,0h-.3c-.3,0-.4,0-.7,0v-1.6c1,.2,3.2.3,6,.3h.4Z"/>
    <path class="st0" d="M320.1,16.2c-.8.2-1.3.3-2.2.6l-.2-1.6h.2c.4,0,1.1-.1,2-.3l1.8-.4v-4.8c0-1.3,0-1.8-.1-2.5h1.7c-.1.6-.1,1.2-.1,2.5v4.5l4.8-1c.9-.2,1.6-.4,2.1-.6l.2,1.6c-.6,0-1.4.1-2.2.3l-4.9,1v8c0,.6.2.8,1,.8s1.8-.1,2.2-.2c.9-.2,1.2-.7,1.5-2.2.1-1,.2-1.5.3-3,.5.3.8.5,1.4.6-.3,3.1-.6,4.4-1.3,5.1-.4.4-.9.6-1.7.8-.6.1-1.7.2-2.4.2-2,0-2.5-.4-2.5-1.9v-7.9l-1.5.3ZM330.8,10.3c-1.3,0-2.2,0-2.7.1v-1.6c.6.1,1.5.2,2.9.2h9.5c.9,0,1.7,0,2.5-.1q0,1.2-.2,3.6c-.2,7.6-.9,13.3-1.8,16.3-.5,1.7-1.2,2.2-2.9,2.2s-2.2,0-3.6-.2c0-.7-.1-1.1-.3-1.7,1.5.3,2.7.4,3.7.4s1.1-.1,1.4-.6c.6-1.1,1.2-4.2,1.6-8.2.3-3,.4-5.9.5-10.4h-6.2c0,.6,0,1.1,0,1.4-.3,5.9-1.1,9.6-3,13-1.5,2.7-3.4,4.6-6.8,6.9-.3-.5-.6-.8-1.2-1.3,3.7-2.1,5.9-4.3,7.4-7.6,1.5-3.2,2.1-6.4,2.2-12.4h-2.9Z"/>
    <path class="st0" d="M354.5,7.4c-.2.6-.4,1.4-.6,3-.5,3.3-.9,6.6-1,7.8h.1c.4-2,.6-2.4,1-3.4.7-1.7,1.7-3.2,2.9-4.2,1.1-1,2.4-1.5,3.7-1.5s3.4.8,4.5,2.5c1.1,1.7,1.6,3.8,1.6,6.7,0,5-2.2,8.8-6.3,10.9-1.3.7-2.9,1.2-4.8,1.7-.3-.7-.4-1-1-1.5,2.4-.4,4-.9,5.5-1.8,3.3-1.9,4.9-5,4.9-9.5s-1.6-7.3-4.4-7.3-4,1.7-5.7,5c-1,2.1-1.5,4.2-1.5,6.2s0,.1,0,.7h-1.7v-.7q0-.7,0-2.8v-.7c0-2.6.3-6.2,1-10.3,0-.4,0-.6,0-.9l1.8.2Z"/>
    <path class="st0" d="M377.2,28.8c0,1.5,0,2.4.2,3.1h-1.7c.1-.8.2-1.6.2-3.1V10.4c0-1.3,0-2.2-.1-3.1.8,0,1.5.1,2.9.1h4.1c1.4,0,2.1,0,2.9-.1,0,.8,0,1.6,0,2.7v3.2c0,1.1,0,1.8,0,2.6-.6,0-1.7,0-2.9,0h-5.4v13ZM377.2,10.9h6.9v-2.4h-6.9v2.4ZM377.2,14.6h6.9v-2.5h-6.9v2.5ZM382.6,19.2c-1.2,0-2,0-2.6.1v-1.4c.7.1,1.4.1,2.6.1h9.1c1.3,0,1.9,0,2.6-.1v1.4c-.6,0-1.5-.1-2.6-.1h-1.3v3.8h1.7c1.3,0,2,0,2.6-.1v1.4c-.7-.1-1.4-.1-2.6-.1h-1.7v4.5c0,1.3,0,1.9.2,2.4h-1.7c.1-.6.2-1.2.2-2.4v-4.5h-4.5c-.3,3.2-1.4,5.1-3.8,7.1-.4-.4-.6-.6-1.2-.9,1.7-1.2,2.3-1.9,2.9-3.3.4-.9.6-1.5.7-2.9h-1.3c-1.2,0-1.9,0-2.6.1v-1.4c.7.1,1.4.1,2.6.1h1.4c0-1.1,0-1.7.1-3.8h-.9ZM384.8,19.2c0,2,0,2.3-.1,3.8h4.4v-3.8h-4.3ZM398.3,29.2c0,1.7-.5,2.1-2.5,2.1s-1.9,0-2.7-.1c-.1-.6-.2-.9-.4-1.5,1.2.2,2.4.3,3.2.3s1.1-.2,1.1-.8v-13.5h-5.8c-1.2,0-2.1,0-2.9,0,0-.8,0-1.6,0-2.6v-3.2c0-1,0-1.8,0-2.7.8,0,1.5.1,2.9.1h4.4c1.4,0,2.2,0,3-.1-.1,1-.1,1.8-.1,3.1v18.8ZM389.6,10.9h7.3v-2.4h-7.3v2.4ZM389.6,14.6h7.3v-2.5h-7.3v2.5Z"/>
    <path class="st0" d="M420,8.7c-.3.2-.3.3-3.4,3.3-1.4,1.3-2.9,2.5-6.4,5.3-1.1.8-1.3,1-1.3,1.5s.3.8,2.5,2.5c2.5,2,4.9,3.9,5.9,4.9l3.1,2.9c.4.4.5.4.8.7l-1.5,1.4c-.7-1-1.8-2.1-3.6-3.8-1.9-1.8-2.9-2.6-7.1-5.9-1.5-1.2-1.9-1.8-1.9-2.6s.3-1.2.8-1.8q.3-.3,2.4-1.8c3.6-2.8,7.2-6.2,8.1-7.7l1.6,1.2Z"/>
  </g>
</svg>